#!OML:ASF H:\Terrain\Patient Classification 1\Walking\liu\liu.ASF
:FULLY-SPECIFIED
:DEGREES
1
root 7.46593 15.9937 -36.7321 7.11356 1.31487 -3.66776
lowerback -4.29912 0.189404 0.939401
upperback -1.51886 0.185188 2.55702
thorax 0.845091 0.0960327 2.10705
lowerneck -18.6579 -5.17414 -13.3376
upperneck 13.6797 -6.63107 16.9236
head 8.38994 -2.28192 7.17028
rclavicle 6.33626e-015 1.59028e-014
rhumerus -38.7688 17.4551 -84.1031
rradius 56.1989
rwrist -28.5696
rhand -33.2015 -25.7513
rfingers 7.12502
rthumb -6.4087 -55.6344
lclavicle 6.33626e-015 1.59028e-014
lhumerus -35.9267 -2.97855 86.2544
lradius 27.4056
lwrist 7.30557
lhand -13.3003 -23.0211
lfingers 7.12502
lthumb 12.8038 6.56624
rfemur -9.89801 4.72659 30.1099
rtibia 24.1198
rfoot 0 0
rtoes 0
lfemur -40.6897 6.42258 -16.3516
ltibia 43.9106
lfoot -14.6186 8.34667
ltoes -11.8487
2
root 7.46979 15.9909 -36.6099 6.97364 1.17677 -3.42769
lowerback -4.02947 0.124717 0.686617
upperback -1.74341 0.122466 2.40941
thorax 0.46583 0.0663449 2.09235
lowerneck -18.3092 -4.94712 -12.866
upperneck 13.9808 -6.45508 16.5981
head 8.36631 -2.21315 7.00226
rclavicle 9.405e-015 1.19271e-015
rhumerus -39.2962 17.4621 -84.4896
rradius 56.9177
rwrist -29.7836
rhand -32.5089 -26.7042
rfingers 7.12502
rthumb -5.7401 -56.6064
lclavicle 9.405e-015 1.19271e-015
lhumerus -36.6135 -3.05608 86.2016
lradius 27.605
lwrist 7.3759
lhand -13.2527 -23.6778
lfingers 7.12502
lthumb 12.8496 5.90672
rfemur -9.10523 4.99331 29.8867
rtibia 23.7929
rfoot 0 0
rtoes 0
lfemur -40.6314 5.96489 -16.4186
ltibia 41.7651
lfoot -14.4396 7.79462
ltoes -11.6514
3
root 7.46865 15.9817 -36.4922 7.07496 1.02062 -3.42104
lowerback -4.25268 0.208491 0.534139
upperback -1.76783 0.23568 2.43554
thorax 0.561043 0.123555 2.21113
lowerneck -18.4858 -4.92439 -12.5804
upperneck 14.4563 -6.50752 16.431
head 8.54722 -2.22279 6.90035
rclavicle -1.70955e-014 7.95139e-016
rhumerus -39.3659 17.3532 -84.4603
rradius 57.625
rwrist -31.152
rhand -31.4625 -27.2739
rfingers 7.12502
rthumb -4.72972 -57.2011
lclavicle -1.70955e-014 7.95139e-016
lhumerus -36.5585 -3.05951 86.3507
lradius 27.3878
lwrist 7.04318
lhand -12.8526 -23.8908
lfingers 7.12502
lthumb 13.2353 5.66904
rfemur -8.43305 5.3581 29.9246
rtibia 23.264
rfoot 0 0
rtoes 0
lfemur -40.9779 5.65123 -16.2292
ltibia 39.9056
lfoot -14.4266 7.22118
ltoes -11.0794
4
root 7.47418 15.9769 -36.3689 7.14604 0.803247 -3.68708
lowerback -4.61549 0.473467 0.820282
upperback -1.70417 0.565892 2.58227
thorax 0.818589 0.287427 2.22112
lowerneck -17.882 -5.25168 -13.575
upperneck 13.8875 -6.76818 16.8044
head 8.34422 -2.40182 7.15538
rclavicle 9.56651e-016 1.43125e-014
rhumerus -39.3617 17.1947 -84.1293
rradius 58.0906
rwrist -32.1972
rhand -31.5155 -27.6026
rfingers 7.12502
rthumb -4.7809 -57.5286
lclavicle 9.56651e-016 1.43125e-014
lhumerus -36.4987 -3.78739 87.1447
lradius 27.5
lwrist 7.27147
lhand -11.9059 -23.4389
lfingers 7.12502
lthumb 14.1477 6.05943
rfemur -7.73696 5.42009 30.2106
rtibia 22.7501
rfoot 0 0
rtoes 0
lfemur -41.1966 5.57806 -15.8665
ltibia 37.9366
lfoot -13.8623 7.28492
ltoes -11.0212
5
root 7.48792 15.9761 -36.2368 7.03203 0.509124 -3.74126
lowerback -4.7951 0.451015 0.883789
upperback -1.51829 0.522416 2.64425
thorax 1.11112 0.26436 2.25024
lowerneck -18.0594 -5.0876 -13.8694
upperneck 13.8475 -6.51753 17.2352
head 8.34947 -2.25446 7.40086
rclavicle 1.31571e-014 1.98785e-015
rhumerus -39.1153 17.6931 -84.2583
rradius 58.5065
rwrist -33.0862
rhand -31.5935 -28.7917
rfingers 7.12502
rthumb -4.85618 -58.7161
lclavicle 1.31571e-014 1.98785e-015
lhumerus -36.6188 -4.28507 87.6847
lradius 27.9949
lwrist 7.8812
lhand -11.7685 -22.5897
lfingers 7.12502
lthumb 14.2801 6.89933
rfemur -6.76939 5.39776 30.231
rtibia 22.1287
rfoot 0 0
rtoes 0
lfemur -41.0885 5.24817 -15.6205
ltibia 36.0041
lfoot -13.5117 7.59032
ltoes -10.7221
6
root 7.50065 15.9778 -36.1019 6.90956 0.143317 -3.59832
lowerback -4.8626 0.406016 0.78327
upperback -1.42958 0.464311 2.54658
thorax 1.24188 0.234483 2.20403
lowerneck -18.238 -4.90282 -13.563
upperneck 13.9811 -6.30916 17.0942
head 8.37303 -2.14219 7.32888
rclavicle 9.19379e-016 -7.95139e-016
rhumerus -39.1042 18.0191 -84.681
rradius 58.9745
rwrist -33.829
rhand -31.1687 -29.276
rfingers 7.12502
rthumb -4.44608 -59.2094
lclavicle 9.19379e-016 -7.95139e-016
lhumerus -36.7363 -4.32972 87.7261
lradius 27.9918
lwrist 7.51793
lhand -12.0257 -22.8746
lfingers 7.12502
lthumb 14.0322 6.63171
rfemur -5.73665 5.40565 30.0319
rtibia 21.4444
rfoot 0 0
rtoes 0
lfemur -40.8844 4.75434 -15.4144
ltibia 34.0978
lfoot -13.9774 7.81638
ltoes -10.6008
7
root 7.50624 15.9885 -35.9735 6.86854 -0.17638 -3.57052
lowerback -4.81653 0.336841 0.678146
upperback -1.45711 0.38005 2.45831
thorax 1.19056 0.192362 2.16664
lowerneck -18.3536 -4.80065 -12.8619
upperneck 14.1223 -6.26921 16.6241
head 8.39095 -2.11947 7.04227
rclavicle 7.82715e-016 -2.40529e-014
rhumerus -39.2285 18.288 -85.2402
rradius 59.3563
rwrist -34.2626
rhand -31.2079 -29.3832
rfingers 7.12502
rthumb -4.48392 -59.3158
lclavicle 7.82715e-016 -2.40529e-014
lhumerus -36.9393 -4.25062 87.5249
lradius 27.9725
lwrist 7.00648
lhand -11.7544 -23.4181
lfingers 7.12502
lthumb 14.2937 6.0699
rfemur -4.84262 5.61262 29.9831
rtibia 20.8221
rfoot 0 0
rtoes 0
lfemur -40.7524 4.35447 -15.069
ltibia 32.1433
lfoot -14.1121 8.08479
ltoes -12.2687
8
root 7.50764 15.9857 -35.8459 6.91655 -0.470328 -3.66415
lowerback -4.8712 0.346357 0.61553
upperback -1.49972 0.395428 2.4627
thorax 1.17634 0.200186 2.20752
lowerneck -18.8507 -4.82051 -12.4577
upperneck 14.7409 -6.38948 16.4107
head 8.68358 -2.14326 6.89923
rclavicle 4.73356e-015 -4.77083e-015
rhumerus -39.3744 18.3763 -85.5972
rradius 59.7382
rwrist -34.4679
rhand -31.7152 -30.7095
rfingers 7.12502
rthumb -4.9737 -60.6311
lclavicle 4.73356e-015 -4.77083e-015
lhumerus -37.4828 -5.0051 87.8333
lradius 28.6375
lwrist 7.53984
lhand -11.3797 -22.8819
lfingers 7.12502
lthumb 14.6547 6.58019
rfemur -4.00236 6.06914 30.1021
rtibia 20.084
rfoot -21.1458 -3.49276
rtoes -9.68514
lfemur -40.7434 3.98829 -14.5774
ltibia 30.2974
lfoot -13.7805 8.20078
ltoes -12.6347
9
root 7.51288 15.9672 -35.7132 6.96061 -0.816342 -3.75346
lowerback -5.22229 0.452311 0.685086
upperback -1.36126 0.522828 2.40946
thorax 1.51138 0.262434 2.12581
lowerneck -19.4992 -4.97848 -12.0569
upperneck 15.3323 -6.63288 15.9401
head 9.00438 -2.24313 6.64233
rclavicle 1.69153e-014 6.55989e-015
rhumerus -39.291 18.208 -85.8358
rradius 60.118
rwrist -34.63
rhand -31.647 -31.5577
rfingers 7.12502
rthumb -4.90787 -61.4809
lclavicle 1.69153e-014 6.55989e-015
lhumerus -37.6708 -5.97953 88.1472
lradius 29.0051
lwrist 7.96813
lhand -10.674 -22.4876
lfingers 7.12502
lthumb 15.3346 6.92383
rfemur -3.1144 6.30367 30.1902
rtibia 19.2319
rfoot -21.087 -3.29936
rtoes -8.91913
lfemur -40.7314 3.5461 -14.0091
ltibia 28.6257
lfoot -13.7056 8.37162
ltoes -12.4976
10
root 7.52371 15.9651 -35.577 7.01174 -1.21266 -4.0616
lowerback -5.57037 0.524094 1.0044
upperback -1.2517 0.587966 2.48222
thorax 1.81873 0.29491 2.03085
lowerneck -19.692 -5.03061 -11.7381
upperneck 15.4226 -6.67411 15.3955
head 9.04012 -2.28705 6.38251
rclavicle 1.34801e-014 3.20043e-014
rhumerus -39.3047 18.3381 -86.0845
rradius 60.5115
rwrist -34.7657
rhand -30.9025 -30.0122
rfingers 7.12502
rthumb -4.18903 -59.9507
lclavicle 1.34801e-014 3.20043e-014
lhumerus -37.5399 -6.03188 88.1954
lradius 28.6383
lwrist 7.44216
lhand -9.8382 -23.3123
lfingers 7.12502
lthumb 16.1395 6.03569
rfemur -2.17398 6.26353 30.4381
rtibia 18.342
rfoot -20.9164 -2.85111
rtoes -8.85186
lfemur -40.6912 3.08407 -13.1446
ltibia 27.0772
lfoot -13.731 8.93334
ltoes -13.0754
11
root 7.53438 15.9688 -35.4422 7.08281 -1.62989 -4.21641
lowerback -5.62718 0.582034 1.0796
upperback -1.36029 0.660099 2.58083
thorax 1.73639 0.331424 2.09519
lowerneck -19.6104 -4.93883 -11.4559
upperneck 15.4556 -6.56334 15.0368
head 8.99361 -2.25598 6.21897
rclavicle -6.47914e-015 3.8763e-014
rhumerus -39.6602 18.555 -86.3954
rradius 60.8777
rwrist -34.8856
rhand -30.4186 -28.8941
rfingers 7.12502
rthumb -3.72174 -58.8413
lclavicle -6.47914e-015 3.8763e-014
lhumerus -38.0534 -6.28496 88.5461
lradius 28.8553
lwrist 7.25088
lhand -9.88555 -23.8687
lfingers 7.12502
lthumb 16.0939 5.48295
rfemur -1.14606 6.23535 30.508
rtibia 17.2542
rfoot -20.6999 -2.62785
rtoes -9.71777
lfemur -40.7057 2.60221 -12.4471
ltibia 25.712
lfoot -13.9058 9.63845
ltoes -12.6758
12
root 7.54757 15.9604 -35.3096 7.01143 -2.00671 -4.20342
lowerback -5.60272 0.662971 1.00996
upperback -1.34649 0.771555 2.60958
thorax 1.73244 0.386773 2.17159
lowerneck -19.5111 -4.9088 -11.0306
upperneck 15.3459 -6.53034 14.512
head 8.89615 -2.27141 5.95491
rclavicle -1.14363e-014 1.23246e-014
rhumerus -39.8872 18.6623 -86.6247
rradius 61.1985
rwrist -34.9593
rhand -30.7928 -29.5903
rfingers 7.12502
rthumb -4.08301 -59.5309
lclavicle -1.14363e-014 1.23246e-014
lhumerus -38.6915 -6.85484 88.9843
lradius 29.5307
lwrist 7.41265
lhand -9.37984 -22.9609
lfingers 7.12502
lthumb 16.5808 6.3508
rfemur 0.0531284 6.20524 30.4397
rtibia 16.0686
rfoot -20.5541 -2.46636
rtoes -9.31277
lfemur -40.6913 2.21025 -12.0403
ltibia 24.5045
lfoot -14.2241 10.3262
ltoes -13.4372
13
root 7.56315 15.9579 -35.1723 6.84858 -2.39617 -4.2983
lowerback -5.74498 0.744119 1.10888
upperback -1.14889 0.863023 2.65896
thorax 2.01316 0.431755 2.17813
lowerneck -19.7744 -4.96781 -11.6088
upperneck 15.6149 -6.61056 15.2626
head 9.09992 -2.25673 6.32721
rclavicle -2.27981e-015 -7.7526e-015
rhumerus -39.9341 18.8228 -86.8257
rradius 61.5251
rwrist -34.9674
rhand -31.2044 -29.7027
rfingers 7.12502
rthumb -4.48048 -59.6353
lclavicle -2.27981e-015 -7.7526e-015
lhumerus -38.8621 -6.84281 89.0828
lradius 29.788
lwrist 7.05916
lhand -8.08615 -22.32
lfingers 7.12502
lthumb 17.8259 6.88297
rfemur 1.27218 6.09063 30.4769
rtibia 15.0914
rfoot -20.5947 -2.0358
rtoes -7.09517
lfemur -40.4795 1.68275 -11.4262
ltibia 23.2495
lfoot -14.1984 11.2654
ltoes -14.5861
